
<svg xmlns="http://www.w3.org/2000/svg" fill="none" viewBox="0 0 44 36">
<path d="M8.15231 35.48C5.59231 35.48 3.65631 34.76 2.34431 33.32C1.03231 31.848 0.376313 29.752 0.376313 27.032V25.112H5.36831V27.416C5.36831 29.592 6.28031 30.68 8.10431 30.68C9.00031 30.68 9.67231 30.424 10.1203 29.912C10.6003 29.368 10.8403 28.504 10.8403 27.32C10.8403 25.912 10.5203 24.68 9.88031 23.624C9.24031 22.536 8.05631 21.24 6.32831 19.736C4.15231 17.816 2.63231 16.088 1.76831 14.552C0.904313 12.984 0.472313 11.224 0.472313 9.272C0.472313 6.616 1.14431 4.568 2.48831 3.128C3.83231 1.656 5.78431 0.919998 8.34431 0.919998C10.8723 0.919998 12.7763 1.656 14.0563 3.128C15.3683 4.568 16.0243 6.648 16.0243 9.368V10.76H11.0323V9.032C11.0323 7.88 10.8083 7.048 10.3603 6.536C9.91231 5.992 9.25631 5.72 8.39231 5.72C6.63231 5.72 5.75231 6.792 5.75231 8.936C5.75231 10.152 6.07231 11.288 6.71231 12.344C7.38431 13.4 8.58431 14.68 10.3123 16.184C12.5203 18.104 14.0403 19.848 14.8723 21.416C15.7043 22.984 16.1203 24.824 16.1203 26.936C16.1203 29.688 15.4323 31.8 14.0563 33.272C12.7123 34.744 10.7443 35.48 8.15231 35.48ZM23.5224 17.816L17.7144 1.4H23.2824L26.8344 12.248H26.9304L30.5784 1.4H35.5704L29.7624 17.816L35.8584 35H30.2904L26.4504 23.288H26.3544L22.4184 35H17.4264L23.5224 17.816Z" fill="black"/>
<path d="M38.6008 29.912H43.6888V35H38.6008V29.912Z" fill="#0EA5E9"/>
    <style>
        path { fill: #000; }
        @media (prefers-color-scheme: dark) {
            path { fill: #FFF; }
        }
    </style>
</svg>
